<?xml version="1.0" encoding="utf-8"?>
<!-- Generator: Adobe Illustrator 24.1.0, SVG Export Plug-In . SVG Version: 6.00 Build 0)  -->
<svg version="1.1" id="Capa_1" xmlns="http://www.w3.org/2000/svg" xmlns:xlink="http://www.w3.org/1999/xlink" x="0px" y="0px"
	 viewBox="0 0 200 100" style="enable-background:new 0 0 200 100;" xml:space="preserve">
<style type="text/css">
	.st0{fill:#292929;}
	.st1{fill:#95A6AD;}
	.st2{fill:#3CA4DD;}
</style>
<g>
	<path class="st0" d="M55.45,84.09c6.62,0.86,12.87-0.75,16.3-6.42c1.64-2.71,2.15-5.19,2.25-7.01L73.8,34l-10.43,0.06
		c0.21,37.35,0.25,35.64,0.07,36.54c-0.42,2.15-1.56,3.81-6.65,3.15L55.45,84.09z"/>
	<path class="st1" d="M63.47,33.73c0-2.76,2.24-5,5-5c2.76,0,5,2.24,5,5c0,2.76-2.24,5-5,5C65.71,38.73,63.47,36.49,63.47,33.73
		L63.47,33.73z"/>
	<g>
		<g>
			<g>
				<path class="st0" d="M91.08,41.92c-6.74,6.63-2.73,18.53,6.63,19.12l-0.6,9.71c-17.81-1.1-25.54-23.3-12.85-35.77L91.08,41.92z"
					/>
				<path class="st0" d="M87.89,51.56c-0.18-1.28-0.13-2.61,0.15-3.92c0.28-1.31,0.81-2.59,1.59-3.8c0.85-1.31,1.91-2.37,3.09-3.19
					c1.78-1.23,3.86-1.9,5.93-1.97c1.04-0.03,2.07,0.09,3.07,0.36c1,0.27,1.97,0.7,2.9,1.3l0,0l5.3-8.16
					c-2.37-1.54-4.96-2.52-7.6-2.96c-3.96-0.66-8-0.12-11.64,1.47c-1.82,0.8-3.54,1.86-5.1,3.18c-1.56,1.31-2.95,2.88-4.11,4.67
					c0,0,0,0,0,0c-1.43,2.2-2.41,4.59-2.94,7.03c-0.53,2.44-0.62,4.92-0.28,7.33L87.89,51.56z"/>
			</g>
			<path class="st1" d="M108.71,32.26c2.69-0.05,4.9,2.09,4.95,4.78c0.05,2.69-2.09,4.9-4.78,4.95s-4.9-2.09-4.95-4.78
				C103.89,34.53,106.02,32.31,108.71,32.26L108.71,32.26z"/>
		</g>
		<path class="st2" d="M97.73,61.07c2.69-0.05,4.9,2.09,4.95,4.78c0.05,2.69-2.09,4.9-4.78,4.95s-4.9-2.09-4.95-4.78
			C92.9,63.33,95.04,61.11,97.73,61.07L97.73,61.07z"/>
	</g>
	<g>
		<path class="st0" d="M86.06,68.47c4.2,8.47,16.77,8.36,20.23-0.36l9.04,3.59c-6.58,16.59-30.09,17.03-38,1.09L86.06,68.47z"/>
		<path class="st1" d="M110.71,65.26c2.69-0.05,4.9,2.09,4.95,4.78c0.05,2.69-2.09,4.9-4.78,4.95s-4.9-2.09-4.95-4.78
			C105.89,67.53,108.02,65.31,110.71,65.26L110.71,65.26z"/>
		<path class="st2" d="M81.73,66.07c2.69-0.05,4.9,2.09,4.95,4.78s-2.09,4.9-4.78,4.95s-4.9-2.09-4.95-4.78
			C76.9,68.33,79.04,66.11,81.73,66.07L81.73,66.07z"/>
	</g>
	<path class="st2" d="M55.72,73.72c2.88-0.05,5.25,2.24,5.3,5.11c0.05,2.88-2.24,5.25-5.11,5.3c-2.88,0.05-5.25-2.24-5.3-5.11
		C50.55,76.15,52.84,73.77,55.72,73.72L55.72,73.72z"/>
</g>
</svg>
